HIERARCHY
ROOT Hips
{
	OFFSET 38.925598 -9.782256 100.714996
	CHANNELS 6 Xposition Yposition Zposition Xrotation Yrotation Zrotation
	JOINT spine
	{
		OFFSET 0.000000 -0.507026 8.817039
		CHANNELS 3 Xrotation Yrotation Zrotation
		JOINT spine1
		{
			OFFSET 0.000000 -0.000002 10.776604
			CHANNELS 3 Xrotation Yrotation Zrotation
			JOINT spine2
			{
				OFFSET 0.000000 -0.000001 10.325897
				CHANNELS 3 Xrotation Yrotation Zrotation
				JOINT Neck
				{
					OFFSET 0.000000 -1.263955 26.511002
					CHANNELS 3 Xrotation Yrotation Zrotation
					JOINT Head
					{
						OFFSET 0.000000 -0.000001 8.009659
						CHANNELS 3 Xrotation Yrotation Zrotation
						End Site
						{
							OFFSET 0.000000 6.393857 19.387894
						}
					}
				}
				JOINT RightShoulder
				{
					OFFSET -4.347950 0.605420 11.151199
					CHANNELS 3 Xrotation Yrotation Zrotation
					JOINT RightArm
					{
						OFFSET 0.000000 -0.000003 14.625793
						CHANNELS 3 Xrotation Yrotation Zrotation
						JOINT RightArmRoll
						{
							OFFSET 0.000000 -0.000001 7.383392
							CHANNELS 3 Xrotation Yrotation Zrotation
							JOINT RightForeArm
							{
								OFFSET 0.000000 -0.000004 21.505203
								CHANNELS 3 Xrotation Yrotation Zrotation
								JOINT RightForeArmRoll
								{
									OFFSET 0.000000 -0.000001 8.285324
									CHANNELS 3 Xrotation Yrotation Zrotation
									JOINT RightHand
									{
										OFFSET 0.000000 -0.000003 16.626801
										CHANNELS 3 Xrotation Yrotation Zrotation
										End Site
										{
											OFFSET 0.000000 0.000000 0.100006
										}
									}
								}
							}
						}
					}
				}
				JOINT LeftShoulder
				{
					OFFSET 4.347950 0.605420 11.151199
					CHANNELS 3 Xrotation Yrotation Zrotation
					JOINT LeftArm
					{
						OFFSET 0.000000 -0.000003 14.625793
						CHANNELS 3 Xrotation Yrotation Zrotation
						JOINT LeftArmRoll
						{
							OFFSET 0.000000 -0.000001 7.383392
							CHANNELS 3 Xrotation Yrotation Zrotation
							JOINT LeftForeArm
							{
								OFFSET 0.000000 -0.000004 21.505203
								CHANNELS 3 Xrotation Yrotation Zrotation
								JOINT LeftForeArmRoll
								{
									OFFSET 0.000000 -0.000001 8.285324
									CHANNELS 3 Xrotation Yrotation Zrotation
									JOINT LeftHand
									{
										OFFSET 0.000000 -0.000003 16.626801
										CHANNELS 3 Xrotation Yrotation Zrotation
										End Site
										{
											OFFSET 0.000000 0.000000 0.100006
										}
									}
								}
							}
						}
					}
				}
			}
		}
	}
	JOINT RightUpLeg
	{
		OFFSET -7.815100 1.202170 -1.433090
		CHANNELS 3 Xrotation Yrotation Zrotation
		JOINT RightUpLegRoll
		{
			OFFSET 0.000000 -0.000003 19.495895
			CHANNELS 3 Xrotation Yrotation Zrotation
			JOINT RightLeg
			{
				OFFSET 0.000000 0.000004 -24.142700
				CHANNELS 3 Xrotation Yrotation Zrotation
				JOINT RightLegRoll
				{
					OFFSET 0.000000 -0.000004 24.221703
					CHANNELS 3 Xrotation Yrotation Zrotation
					JOINT RightFoot
					{
						OFFSET 0.000000 -0.000004 20.160500
						CHANNELS 3 Xrotation Yrotation Zrotation
						JOINT RightToeBase
						{
							OFFSET 0.000000 -0.000003 16.853195
							CHANNELS 3 Xrotation Yrotation Zrotation
							End Site
							{
								OFFSET 0.007143 0.940780 8.161865
							}
						}
					}
				}
			}
		}
	}
	JOINT LeftUpLeg
	{
		OFFSET 7.815102 1.202170 -1.433090
		CHANNELS 3 Xrotation Yrotation Zrotation
		JOINT LeftUpLegRoll
		{
			OFFSET 0.000000 -0.000003 19.496002
			CHANNELS 3 Xrotation Yrotation Zrotation
			JOINT LeftLeg
			{
				OFFSET 0.000000 -0.000004 24.142593
				CHANNELS 3 Xrotation Yrotation Zrotation
				JOINT LeftLegRoll
				{
					OFFSET 0.000000 -0.000005 24.445602
					CHANNELS 3 Xrotation Yrotation Zrotation
					JOINT LeftFoot
					{
						OFFSET 0.000000 -0.000003 19.936600
						CHANNELS 3 Xrotation Yrotation Zrotation
						JOINT LeftToeBase
						{
							OFFSET 0.000000 -0.000003 16.853195
							CHANNELS 3 Xrotation Yrotation Zrotation
							End Site
							{
								OFFSET -0.032013 0.940779 8.161865
							}
						}
					}
				}
			}
		}
	}
}
MOTION
Frames: 12
Frame Time: 0.041667
56.525200 -11.278217 99.249001 3.390706 3.205088 70.486603 -1.919110 1.013981 1.403815 0.140395 1.994284 2.832913 1.785069 2.028066 2.808860 -17.520296 60.953715 8.434478 4.148631 -45.087933 -3.433090 11.740657 -8.590320 27.598672 125.047937 -4.684012 137.240972 0.000000 -0.000001 -0.000001 11.805114 1.987802 -1.381562 0.000003 -0.000002 -3.001050 -4.999823 -7.998700 -0.000094 -76.510515 67.259263 86.012101 370.181391 84.652367 -385.931971 -0.000002 0.000001 0.000000 14.262086 12.110276 -0.791276 -0.000001 -0.000010 2.999998 -4.999694 7.999734 0.000315 3.849981 -178.010494 1.134059 -179.999991 0.000006 -1.227000 164.821836 -1.799990 -0.678226 0.000000 -0.000002 0.643753 76.854600 6.879904 1.497849 36.901480 -7.209406 1.457292 -18.445016 182.303418 4.945889 -0.000005 -0.000005 -1.114911 -18.335305 3.194690 0.985381 -0.000002 0.000003 -0.452251 74.444356 -7.180230 -0.835401 25.456947 7.350608 -0.000006 
56.543800 -11.279817 99.249809 3.402678 3.214712 70.506957 -1.918951 1.015210 1.404031 0.140680 1.996734 2.833197 1.785352 2.030524 2.809124 -17.486603 60.939849 8.397461 4.140850 -45.147117 -3.438658 11.756867 -8.590933 27.622724 125.397560 -4.475772 137.459633 0.000002 -0.000002 -0.000000 11.646080 2.011778 -1.377557 0.000002 -0.000001 -3.001052 -4.999824 -7.998698 -0.000094 -76.503207 67.260903 86.003823 370.256850 84.685651 -386.125866 -0.000000 0.000001 -0.000003 14.074850 12.029812 -0.760382 -0.000001 -0.000010 3.000000 -4.999695 7.999736 0.000315 3.844923 -177.995508 1.142430 -179.999991 0.000005 -1.226998 164.815893 -1.802827 -0.678199 0.000002 -0.000001 0.644058 76.857701 6.878695 1.502217 36.911787 -7.209257 1.458952 -18.445585 182.323348 4.960951 -0.000004 -0.000005 -1.115731 -18.344917 3.183736 0.984723 -0.000001 0.000003 -0.453361 74.454772 -7.178842 -0.838444 25.456945 7.350606 -0.000006 
56.576698 -11.257215 99.244110 3.414700 3.224633 70.527297 -1.918992 1.016360 1.404202 0.140571 1.999034 2.833377 1.785244 2.032823 2.809273 -17.450310 60.925526 8.358344 4.134369 -45.206160 -3.444163 11.774444 -8.596524 27.646707 125.739671 -4.270351 137.659867 0.000000 -0.000003 -0.000001 11.476566 2.024860 -1.370894 0.000004 0.000001 -3.001051 -4.999821 -7.998695 -0.000097 -76.496288 67.263102 85.995913 370.333704 84.717596 -386.319543 0.000001 -0.000001 0.000000 13.889664 11.950351 -0.730193 -0.000000 -0.000010 3.000001 -4.999694 7.999735 0.000315 3.839392 -177.981534 1.150405 -179.999991 0.000005 -1.226999 164.810170 -1.805680 -0.679163 -0.000001 -0.000000 0.644369 76.860522 6.877578 1.506519 36.921896 -7.209122 1.460578 -18.446553 182.343252 4.974471 -0.000004 -0.000004 -1.116539 -18.353558 3.174244 0.984125 -0.000002 0.000003 -0.454359 74.464922 -7.177829 -0.840557 25.456945 7.350611 -0.000008 
56.595901 -11.256516 99.247902 3.426683 3.234796 70.547514 -1.919213 1.017418 1.404290 0.140094 2.001144 2.833421 1.784766 2.034933 2.809294 -17.411141 60.910746 8.316892 4.128872 -45.264859 -3.449843 11.793823 -8.607744 27.670946 126.073162 -4.069766 137.837616 0.000002 -0.000001 -0.000000 11.296240 2.023160 -1.361163 -0.000003 -0.000001 -3.001050 -4.999824 -7.998695 -0.000099 -76.489895 67.265971 85.988243 370.408863 84.748250 -386.509832 0.000001 -0.000000 -0.000001 13.706937 11.872079 -0.700763 -0.000000 -0.000010 3.000000 -4.999695 7.999735 0.000315 3.833510 -177.967559 1.158020 -179.999991 0.000005 -1.226998 164.804651 -1.807555 -0.678865 0.000000 -0.000001 0.644690 76.863022 6.876502 1.510643 36.932114 -7.208978 1.462230 -18.447706 182.361256 4.986479 -0.000005 -0.000005 -1.117330 -18.361133 3.166709 0.983604 -0.000002 0.000003 -0.455217 74.474935 -7.177252 -0.841338 25.456941 7.350609 -0.000006 
56.600197 -11.252916 99.231003 3.438528 3.245186 70.567513 -1.919603 1.018358 1.404299 0.139279 2.003014 2.833293 1.783957 2.036793 2.809156 -17.368833 60.895549 8.272893 4.124038 -45.322936 -3.455938 11.815625 -8.625236 27.695958 126.397145 -3.876690 137.988222 0.000000 0.000001 0.000001 11.104572 2.002903 -1.348039 0.000001 -0.000002 -3.001049 -4.999823 -7.998699 -0.000095 -76.484137 67.269734 85.981147 370.479296 84.777667 -386.693264 0.000001 -0.000000 0.000000 13.526878 11.795190 -0.672127 -0.000001 -0.000010 2.999999 -4.999695 7.999735 0.000317 3.827411 -177.953557 1.165258 -179.999991 0.000005 -1.225999 164.799638 -1.809450 -0.678553 -0.000001 -0.000001 0.645011 76.865016 6.875545 1.514410 36.942325 -7.208846 1.463857 -18.449128 182.377375 4.996300 -0.000004 -0.000005 -1.118110 -18.367552 3.161635 0.983198 -0.000001 0.000003 -0.455914 74.484866 -7.177198 -0.840598 25.456943 7.350610 -0.000007 
56.625103 -11.246914 99.226303 3.450123 3.255739 70.587416 -1.920162 1.019147 1.404195 0.138157 2.004594 2.832997 1.782828 2.038373 2.808836 -17.323190 60.880072 8.226207 4.119604 -45.380293 -3.462687 11.840185 -8.649640 27.722054 126.710869 -3.693856 138.107272 0.000000 -0.000003 -0.000000 10.901258 1.960205 -1.331281 0.000000 -0.000002 -3.001051 -4.999823 -7.998699 -0.000096 -76.479008 67.274385 85.974316 370.541260 84.805603 -386.866122 -0.000001 0.000001 0.000000 13.349809 11.720178 -0.644370 -0.000001 -0.000010 2.999999 -4.999695 7.999735 0.000313 3.821207 -177.941577 1.171947 -179.999991 0.000005 -1.226000 164.794911 -1.811335 -0.679228 0.000000 -0.000001 0.645331 76.866382 6.874677 1.517729 36.952939 -7.208688 1.465522 -18.450839 182.392538 5.003004 -0.000005 -0.000005 -1.118872 -18.372721 3.159509 0.982936 -0.000001 0.000003 -0.456426 74.494831 -7.177731 -0.838034 25.456947 7.350613 -0.000005 
56.639900 -11.254613 99.226791 3.461376 3.266428 70.607224 -1.920853 1.019777 1.403970 0.136757 2.005835 2.832482 1.781429 2.039604 2.808315 -17.273950 60.864342 8.176606 4.115234 -45.436454 -3.470330 11.867925 -8.681590 27.749739 127.013446 -3.524077 138.190136 0.000000 -0.000001 -0.000000 10.685889 1.891251 -1.310699 0.000001 -0.000002 -3.001049 -4.999823 -7.998700 -0.000096 -76.474643 67.280136 85.968108 370.591748 84.832213 -387.025047 -0.000001 0.000000 -0.000002 13.176135 11.647134 -0.617517 -0.000001 -0.000010 3.000002 -4.999695 7.999735 0.000315 3.815021 -177.929583 1.178192 -179.999991 0.000005 -1.226000 164.790704 -1.812260 -0.678607 0.000001 -0.000002 0.645653 76.866908 6.873951 1.520810 36.964062 -7.208529 1.467240 -18.452815 182.404846 5.006575 -0.000004 -0.000005 -1.119629 -18.376549 3.160853 0.982857 -0.000001 0.000003 -0.456729 74.504865 -7.178903 -0.833351 25.456945 7.350612 -0.000005 
56.661499 -11.246017 99.242790 3.472205 3.277214 70.626861 -1.921675 1.020216 1.403600 0.135108 2.006704 2.831740 1.779779 2.040466 2.807559 -17.220886 60.848482 8.123931 4.110630 -45.491423 -3.479086 11.899481 -8.721728 27.779260 127.304139 -3.368996 138.234095 0.000001 -0.000001 0.000001 10.458173 1.792184 -1.286234 -0.000000 -0.000004 -3.001050 -4.999829 -7.998701 -0.000093 -76.471153 67.287130 85.962377 370.627320 84.857457 -387.166486 -0.000000 0.000000 0.000000 13.006167 11.576442 -0.591627 -0.000000 -0.000010 3.000001 -4.999695 7.999734 0.000314 3.808972 -177.918600 1.183881 -179.999991 0.000006 -1.225998 164.786988 -1.814167 -0.679253 0.000000 -0.000001 0.645970 76.866519 6.873404 1.523170 36.975690 -7.208358 1.468987 -18.454949 182.414299 5.006382 -0.000004 -0.000005 -1.120379 -18.378953 3.166145 0.982991 -0.000001 0.000003 -0.456802 74.514871 -7.180951 -0.826292 25.456947 7.350609 -0.000007 
56.691006 -11.219116 99.238304 3.482786 3.288346 70.646375 -1.922765 1.020555 1.403056 0.132920 2.007355 2.830685 1.777599 2.041108 2.806500 -17.163661 60.832233 8.067905 4.107166 -45.546550 -3.488195 11.934881 -8.770724 27.810886 127.580352 -3.226480 138.226828 0.000001 -0.000001 0.000001 10.204314 1.657761 -1.256597 0.000000 -0.000004 -3.001052 -4.999828 -7.998696 -0.000096 -76.468776 67.295054 85.957630 370.650652 84.880871 -387.293692 0.000001 -0.000000 -0.000000 12.839255 11.507377 -0.566422 -0.000000 -0.000010 3.000002 -4.999695 7.999735 0.000316 3.802659 -177.909598 1.188872 -179.999991 0.000006 -1.226001 164.784078 -1.815104 -0.678610 -0.000001 -0.000001 0.646283 76.865084 6.873042 1.525016 36.987711 -7.208174 1.470774 -18.457230 182.419955 5.002249 -0.000004 -0.000005 -1.121098 -18.379233 3.175928 0.983334 -0.000001 0.000003 -0.456586 74.524918 -7.183845 -0.816447 25.456947 7.350608 -0.000005 
56.709400 -11.221515 99.223099 3.493439 3.300068 70.665554 -1.924252 1.020875 1.402346 0.129951 2.007985 2.829297 1.774627 2.041720 2.805093 -17.102433 60.815567 8.008715 4.106307 -45.603483 -3.496724 11.974028 -8.828320 27.844279 127.841457 -3.090754 138.167173 -0.000001 -0.000001 -0.000000 9.915119 1.488502 -1.221817 0.000001 -0.000003 -3.001051 -4.999824 -7.998695 -0.000094 -76.467834 67.303434 85.954277 370.666908 84.901956 -387.412674 -0.000000 0.000001 0.000001 12.674639 11.439291 -0.541673 -0.000000 -0.000010 3.000001 -4.999695 7.999736 0.000317 3.795632 -177.900610 1.193268 -179.999991 0.000005 -1.225000 164.782070 -1.816050 -0.678933 0.000001 -0.000001 0.646595 76.862714 6.872841 1.526437 36.999743 -7.208003 1.472580 -18.459686 182.423725 4.993920 -0.000005 -0.000005 -1.121790 -18.376988 3.189990 0.983840 -0.000002 0.000003 -0.456081 74.534808 -7.187568 -0.804019 25.456945 7.350609 -0.000007 
56.699303 -11.228317 99.245499 3.504117 3.312304 70.684487 -1.926086 1.021163 1.401490 0.126292 2.008535 2.827614 1.770965 2.042255 2.803410 -17.037475 60.798451 7.946571 4.107660 -45.661744 -3.504835 12.016292 -8.893765 27.879099 128.089597 -2.962905 138.062794 0.000000 -0.000003 0.000001 9.596200 1.289100 -1.183595 0.000001 -0.000002 -3.001048 -4.999827 -7.998697 -0.000097 -76.467663 67.312511 85.951626 370.677508 84.921012 -387.524498 0.000000 0.000001 -0.000001 12.512113 11.372212 -0.517334 -0.000001 -0.000010 3.000000 -4.999695 7.999735 0.000316 3.787964 -177.891621 1.197132 -179.999991 0.000005 -1.225005 164.780663 -1.816999 -0.679241 -0.000001 -0.000000 0.646906 76.859627 6.872776 1.527520 37.011788 -7.207824 1.474401 -18.462401 182.424640 4.982391 -0.000005 -0.000005 -1.122442 -18.372610 3.207757 0.984488 -0.000001 0.000003 -0.455306 74.544487 -7.192055 -0.789413 25.456943 7.350609 -0.000007 
56.726700 -11.218815 99.236496 3.514823 3.324984 70.703188 -1.928225 1.021412 1.400502 0.122037 2.008995 2.825700 1.766714 2.042689 2.801479 -16.969035 60.780720 7.881623 4.110928 -45.720723 -3.512665 12.061467 -8.966297 27.915084 128.327179 -2.843394 137.921832 0.000001 -0.000003 -0.000002 9.253393 1.064338 -1.143525 -0.000000 -0.000001 -3.001049 -4.999823 -7.998698 -0.000096 -76.468387 67.322087 85.949673 370.683710 84.938306 -387.630502 -0.000001 0.000001 -0.000000 12.351773 11.306135 -0.493434 -0.000000 -0.000010 2.999999 -4.999695 7.999735 0.000314 3.779730 -177.883603 1.200448 -179.999991 0.000005 -1.225003 164.779953 -1.816993 -0.679264 0.000001 -0.000001 0.647220 76.855829 6.872873 1.528160 37.023812 -7.207654 1.476230 -18.465288 182.423643 4.967985 -0.000005 -0.000004 -1.123060 -18.366490 3.228654 0.985267 -0.000002 0.000003 -0.454319 74.554028 -7.197202 -0.772702 25.456943 7.350611 -0.000007 
